# MeteorShower_Meteor
mtllib WorldEventMaterials.mtl
v 0.272532 -0.117346 0.818795
v 0.404447 -0.095570 0.703471
v 0.432879 -0.059360 0.776336
v 0.373885 -0.017452 0.716543
v 0.396188 0.013516 0.840060
v 0.347608 0.035457 0.843369
v 0.314192 0.047063 0.900810
v 0.287029 0.046897 1.001676
v 0.219109 0.025700 0.953128
v 0.194876 -0.005703 1.068049
v 0.145503 -0.047035 0.988804
v 0.125359 -0.096263 0.994362
v 0.117891 -0.146500 0.977594
v 0.112474 -0.174070 0.856397
v 0.142253 -0.228016 0.899974
v 0.153533 -0.228026 0.769310
v 0.200955 -0.260589 0.792717
v 0.244849 -0.268716 0.774262
v 0.280411 -0.255544 0.732303
v 0.369585 -0.275134 0.825479
v 0.385980 -0.230117 0.765211
v 0.472107 -0.219006 0.862839
v 0.493465 -0.170099 0.863509
v 0.651212 -0.091951 0.729424
v 0.680894 0.007218 0.806036
v 0.567446 0.091863 0.752110
v 0.532278 0.171074 0.837714
v 0.398218 0.199470 0.793705
v 0.292229 0.210660 0.798350
v 0.199433 0.205059 0.836933
v 0.094946 0.150427 0.755127
v 0.028603 0.112179 0.854113
v -0.027525 0.036555 0.789994
v -0.064800 -0.043335 0.845967
v -0.079636 -0.138779 0.887682
v -0.061200 -0.222543 0.843240
v -0.022825 -0.347027 0.942703
v 0.047212 -0.394772 0.854191
v 0.145375 -0.477458 0.887156
v 0.249805 -0.494913 0.842172
v 0.338683 -0.458834 0.761744
v 0.461202 -0.446920 0.775700
v 0.478066 -0.332445 0.655127
v 0.561953 -0.270654 0.674870
v 0.552059 -0.166659 0.620745
v 0.629162 -0.049774 0.450365
v 0.649362 0.070488 0.506231
v 0.532401 0.163117 0.487657
v 0.519409 0.279107 0.604067
v 0.389994 0.329922 0.631218
v 0.278581 0.377461 0.719267
v 0.150442 0.397700 0.829935
v 0.005497 0.327120 0.825769
v -0.127130 0.271458 0.955290
v -0.211523 0.134431 0.896038
v -0.276061 -0.000754 0.918064
v -0.288077 -0.145041 0.886627
v -0.235400 -0.256557 0.769770
v -0.186296 -0.391546 0.777200
v -0.077500 -0.420876 0.631323
v 0.029442 -0.501535 0.619180
v 0.150566 -0.512286 0.558242
v 0.267333 -0.485459 0.500513
v 0.433557 -0.501408 0.529577
v 0.510530 -0.392310 0.469524
v 0.678677 -0.335115 0.523835
v 0.731321 -0.200127 0.520649
v 0.831456 -0.025492 0.332847
v 0.859893 0.159793 0.396133
v 0.702506 0.297919 0.409147
v 0.624889 0.452861 0.504018
v 0.413248 0.489130 0.517368
v 0.236969 0.512021 0.566647
v 0.063753 0.495564 0.618960
v -0.087649 0.382624 0.583733
v -0.232553 0.322119 0.671063
v -0.302899 0.173663 0.617525
v -0.387770 0.041771 0.663881
v -0.422222 -0.116525 0.674025
v -0.384547 -0.266382 0.627231
v -0.360398 -0.464311 0.672773
v -0.219890 -0.555588 0.576441
v -0.075973 -0.700354 0.567593
v 0.110786 -0.730120 0.494325
v 0.291609 -0.688041 0.416437
v 0.493589 -0.658516 0.387553
v 0.572144 -0.475317 0.306148
v 0.714928 -0.360027 0.304092
v 0.711836 -0.178997 0.276000
v 0.718123 0.009104 0.084830
v 0.718802 0.183713 0.124227
v 0.569829 0.303863 0.155581
v 0.523076 0.475228 0.238976
v 0.343282 0.534271 0.290863
v 0.181063 0.612071 0.380705
v -0.014227 0.642421 0.477254
v -0.204674 0.546819 0.511664
v -0.417989 0.484072 0.620580
v -0.519261 0.284582 0.594817
v -0.627158 0.098558 0.620857
v -0.637009 -0.109508 0.585230
v -0.547204 -0.282984 0.496077
v -0.485280 -0.470431 0.467302
v -0.297675 -0.523233 0.344907
v -0.154273 -0.635288 0.298312
v 0.024359 -0.637781 0.221620
v 0.194840 -0.604605 0.159839
v 0.398245 -0.606877 0.127101
v 0.515226 -0.459069 0.084180
v 0.724448 -0.371363 0.077047
v 0.791955 -0.183330 0.076054
v 0.817560 0.046134 -0.136337
v 0.837159 0.273432 -0.100726
v 0.674916 0.436947 -0.034065
v 0.572494 0.636619 0.039936
v 0.331878 0.672642 0.111709
v 0.122021 0.710068 0.186143
v -0.091023 0.680429 0.250565
v -0.257617 0.536424 0.271079
v -0.445467 0.462515 0.332004
v -0.506534 0.269988 0.311102
v -0.620422 0.116606 0.335071
v -0.653677 -0.069516 0.321476
v -0.609423 -0.248907 0.279074
v -0.602335 -0.471487 0.261447
v -0.426106 -0.583623 0.179140
v -0.277775 -0.758885 0.119176
v -0.051811 -0.792826 0.037223
v 0.174565 -0.760834 -0.035885
v 0.410484 -0.720126 -0.101333
v 0.535389 -0.512183 -0.129408
v 0.706870 -0.368978 -0.158879
v 0.712288 -0.150448 -0.142543
v 0.645232 0.068618 -0.317322
v 0.626384 0.255834 -0.286841
v 0.480344 0.375998 -0.208497
v 0.409569 0.560972 -0.172187
v 0.223057 0.609397 -0.095700
v 0.045831 0.701317 -0.032927
v -0.167403 0.729618 0.034413
v -0.362240 0.635489 0.089423
v -0.607846 0.581500 0.146922
v -0.704060 0.367511 0.158248
v -0.840025 0.177428 0.168105
v -0.843499 -0.047598 0.140662
v -0.746060 -0.243677 0.089765
v -0.682962 -0.442156 0.034471
v -0.457524 -0.508771 -0.031916
v -0.309721 -0.627735 -0.104251
v -0.106532 -0.619937 -0.162516
v 0.078729 -0.588522 -0.216720
v 0.275414 -0.573482 -0.289806
v 0.405439 -0.420955 -0.302172
v 0.604936 -0.322438 -0.371539
v 0.670709 -0.126058 -0.362229
v 0.615902 0.105880 -0.565839
v 0.621628 0.321473 -0.563548
v 0.489778 0.474792 -0.471634
v 0.383691 0.674425 -0.444571
v 0.170715 0.702996 -0.330106
v -0.028662 0.750443 -0.260769
v -0.229764 0.712978 -0.188489
v -0.376236 0.573338 -0.120076
v -0.561790 0.500558 -0.091788
v -0.596508 0.305779 -0.063440
v -0.713381 0.165141 -0.068508
v -0.729740 -0.009252 -0.086203
v -0.690487 -0.176476 -0.119333
v -0.697566 -0.371979 -0.190458
v -0.526668 -0.478492 -0.240617
v -0.412103 -0.641381 -0.349174
v -0.198607 -0.671375 -0.417591
v 0.014530 -0.656118 -0.487429
v 0.229653 -0.613553 -0.574107
v 0.371025 -0.429683 -0.550854
v 0.530625 -0.290810 -0.607834
v 0.547559 -0.086049 -0.542058
v 0.417913 0.115336 -0.667146
v 0.390866 0.270759 -0.637538
v 0.282897 0.364464 -0.528098
v 0.205755 0.519874 -0.539387
v 0.059271 0.546387 -0.442813
v -0.095647 0.630354 -0.426778
v -0.274649 0.648025 -0.392217
v -0.432354 0.576820 -0.339473
v -0.653246 0.542695 -0.349545
v -0.723312 0.364249 -0.307658
v -0.859105 0.216029 -0.333101
v -0.855188 0.026219 -0.342347
v -0.777590 -0.144499 -0.358218
v -0.727764 -0.308631 -0.423857
v -0.517961 -0.375369 -0.417772
v -0.400313 -0.473821 -0.501175
v -0.214073 -0.462549 -0.511897
v -0.056571 -0.439740 -0.549236
v 0.094671 -0.413277 -0.630498
v 0.210205 -0.291164 -0.606576
v 0.353499 -0.202674 -0.720685
v 0.405727 -0.043705 -0.694624
v 0.278055 0.139995 -0.855781
v 0.269944 0.294206 -0.882732
v 0.191390 0.402253 -0.798453
v 0.102050 0.554197 -0.831306
v -0.033420 0.569287 -0.702825
v -0.180487 0.614088 -0.669178
v -0.319366 0.579949 -0.597933
v -0.413345 0.478034 -0.504889
v -0.552282 0.424394 -0.507922
v -0.553388 0.273250 -0.427131
v -0.646163 0.176823 -0.460022
v -0.641374 0.050740 -0.459106
v -0.615361 -0.066797 -0.479724
v -0.631739 -0.193552 -0.578646
v -0.503961 -0.270806 -0.586100
v -0.448656 -0.379548 -0.726165
v -0.295147 -0.399907 -0.762038
v -0.150210 -0.397087 -0.828657
v -0.006095 -0.362700 -0.915585
v 0.113923 -0.243258 -0.856050
v 0.220280 -0.139997 -0.933134
v 0.249372 0.000681 -0.829306
v 0.079007 0.137683 -0.880668
v 0.061647 0.224167 -0.849393
v 0.017792 0.270496 -0.734805
v -0.043311 0.362152 -0.783608
v -0.111224 0.365296 -0.678749
v -0.211977 0.419969 -0.714644
v -0.314440 0.425991 -0.707219
v -0.402160 0.389706 -0.676397
v -0.547559 0.380771 -0.750359
v -0.575913 0.277377 -0.691636
v -0.676902 0.204348 -0.761122
v -0.667394 0.094236 -0.747549
v -0.625842 -0.006634 -0.740866
v -0.602647 -0.097561 -0.798767
v -0.459980 -0.147837 -0.723930
v -0.401721 -0.201225 -0.800688
v -0.274687 -0.198015 -0.750427
v -0.182367 -0.187511 -0.765313
v -0.103574 -0.164098 -0.823754
v -0.025709 -0.100830 -0.767708
v 0.031232 -0.041479 -0.896392
v 0.065326 0.043687 -0.852835
v -0.113693 0.141283 -0.942784
v -0.129739 0.200791 -0.987863
v -0.148144 0.237458 -0.937244
v -0.204568 0.303824 -1.025033
v -0.232108 0.300986 -0.915607
v -0.296346 0.325234 -0.937108
v -0.336893 0.307016 -0.879805
v -0.355150 0.264388 -0.793238
v -0.414293 0.246997 -0.821343
v -0.384010 0.178138 -0.701830
v -0.431047 0.148583 -0.754284
v -0.413576 0.097727 -0.719349
v -0.404686 0.055494 -0.725773
v -0.427645 0.019962 -0.819573
v -0.369553 -0.012608 -0.783584
v -0.381721 -0.038937 -0.926134
v -0.320526 -0.048012 -0.918970
v -0.279919 -0.045735 -0.976865
v -0.239683 -0.028113 -1.042628
v -0.176552 0.005167 -0.967621
v -0.154491 0.049940 -1.049885
v -0.117564 0.090277 -0.932529
v -0.299180 0.128821 -0.898857
v 0.540000 0.080000 0.397910
v 0.686996 0.080000 0.354717
v 0.673120 0.143023 0.367270
v 0.606747 0.174799 0.329481
v 0.540000 0.195432 0.343082
v 0.476368 0.170375 0.317838
v 0.432866 0.130720 0.311194
v 0.410057 0.080000 0.322847
v 0.437942 0.031683 0.300240
v 0.472055 -0.016501 0.333960
v 0.540000 -0.026443 0.322595
v 0.610216 -0.019727 0.342451
v 0.669864 0.018519 0.360245
v 0.799099 0.080000 0.265962
v 0.790783 0.198727 0.287838
v 0.672539 0.268242 0.270253
v 0.540000 0.306096 0.277897
v 0.406896 0.269045 0.271064
v 0.330016 0.179412 0.254026
v 0.285052 0.080000 0.262983
v 0.350144 -0.009883 0.237345
v 0.423028 -0.086133 0.247908
v 0.540000 -0.102935 0.240119
v 0.649994 -0.076222 0.237891
v 0.752750 -0.020722 0.256318
v 0.826378 0.080000 0.138827
v 0.826645 0.215705 0.147991
v 0.702000 0.310086 0.146556
v 0.540000 0.355645 0.149052
v 0.361783 0.333119 0.153218
v 0.257070 0.213947 0.147110
v 0.186967 0.080000 0.152520
v 0.266863 -0.049310 0.144787
v 0.382957 -0.143045 0.144519
v 0.540000 -0.171633 0.143037
v 0.676476 -0.113834 0.136069
v 0.798069 -0.042177 0.141213
v 0.805349 0.080000 0.025492
v 0.791378 0.199009 0.020374
v 0.688017 0.290226 0.019189
v 0.540000 0.321108 0.019600
v 0.371986 0.318627 0.010974
v 0.266729 0.209374 0.015181
v 0.188248 0.080000 0.007743
v 0.243343 -0.060446 0.009634
v 0.372338 -0.158128 0.011118
v 0.540000 -0.206938 0.008119
v 0.693354 -0.137805 0.016997
v 0.821134 -0.053096 0.013316
v 0.772520 0.080000 -0.086886
v 0.737128 0.173326 -0.083372
v 0.656869 0.245987 -0.087760
v 0.540000 0.253122 -0.071529
v 0.419148 0.251644 -0.093477
v 0.343079 0.173228 -0.083200
v 0.290999 0.080000 -0.098715
v 0.311852 -0.028012 -0.109080
v 0.411960 -0.101854 -0.103796
v 0.540000 -0.156049 -0.126608
v 0.672360 -0.107988 -0.109996
v 0.782649 -0.034877 -0.121098
v 0.689406 0.080000 -0.199220
v 0.659832 0.136732 -0.178597
v 0.612173 0.182505 -0.189762
v 0.540000 0.181599 -0.151555
v 0.473970 0.173782 -0.166804
v 0.433391 0.130472 -0.150061
v 0.418169 0.080000 -0.147687
v 0.424291 0.025220 -0.169697
v 0.477763 -0.008395 -0.152627
v 0.540000 -0.038605 -0.190314
v 0.610255 -0.019782 -0.182595
v 0.668647 0.019095 -0.197619
v 0.540000 0.080000 -0.245949
v -0.359489 0.125370 0.112662
v -0.262627 0.150697 0.038884
v -0.253973 0.198245 0.080084
v -0.311429 0.226380 0.100580
v -0.355875 0.234747 0.160314
v -0.421148 0.206114 0.174562
v -0.463404 0.158480 0.182375
v -0.476729 0.100441 0.181723
v -0.460756 0.065383 0.125889
v -0.416619 0.028954 0.108358
v -0.373892 0.044349 0.054696
v -0.323820 0.065167 0.033223
v -0.285363 0.103805 0.025814
v -0.243601 0.182292 -0.069694
v -0.238043 0.265465 -0.026729
v -0.322634 0.307760 0.020602
v -0.407954 0.327241 0.094024
v -0.509901 0.286728 0.148514
v -0.582153 0.201748 0.163821
v -0.619058 0.094779 0.178615
v -0.574094 0.013991 0.112155
v -0.495453 -0.053730 0.062681
v -0.389393 -0.044354 -0.008251
v -0.298706 0.011943 -0.057750
v -0.222354 0.087007 -0.075726
v -0.239691 0.210478 -0.168680
v -0.255472 0.312516 -0.128445
v -0.354919 0.358760 -0.065063
v -0.464161 0.368096 0.000553
v -0.581803 0.332209 0.063302
v -0.656151 0.232910 0.076316
v -0.714766 0.115561 0.089612
v -0.665760 0.010611 0.031835
v -0.575134 -0.071069 -0.035747
v -0.436876 -0.085975 -0.115520
v -0.310888 -0.011528 -0.172998
v -0.199290 0.085986 -0.205624
v -0.260572 0.240229 -0.277224
v -0.294654 0.349011 -0.231541
v -0.395856 0.402064 -0.156830
v -0.513793 0.388420 -0.087839
v -0.633082 0.353373 -0.033921
v -0.688661 0.249884 -0.021486
v -0.740242 0.146994 -0.025623
v -0.701263 0.049411 -0.071969
v -0.616625 -0.015257 -0.138162
v -0.498957 -0.045119 -0.220346
v -0.374348 0.022036 -0.269476
v -0.261894 0.114488 -0.318310
v -0.349906 0.259728 -0.360656
v -0.382401 0.352192 -0.320056
v -0.464626 0.412534 -0.261849
v -0.565214 0.390999 -0.186288
v -0.673341 0.359224 -0.145058
v -0.712758 0.264010 -0.121929
v -0.736316 0.177515 -0.132860
v -0.706488 0.099999 -0.168586
v -0.625025 0.062259 -0.211144
v -0.547873 0.041288 -0.282786
v -0.454774 0.089959 -0.309660
v -0.381169 0.158959 -0.355242
v -0.483092 0.255198 -0.366282
v -0.500717 0.303392 -0.343183
v -0.551189 0.349652 -0.334024
v -0.603789 0.338254 -0.280472
v -0.675119 0.323462 -0.266438
v -0.703344 0.267433 -0.244370
v -0.705615 0.210414 -0.244150
v -0.692830 0.162821 -0.269569
v -0.626271 0.139756 -0.274046
v -0.584360 0.133970 -0.318862
v -0.527135 0.159085 -0.319901
v -0.493814 0.197913 -0.335040
v -0.599447 0.234147 -0.310783
v 0.349123 -0.574899 -0.078455
v 0.379247 -0.538217 -0.189757
v 0.395042 -0.497798 -0.158382
v 0.350661 -0.476106 -0.118852
v 0.347797 -0.473645 -0.051925
v 0.307648 -0.500228 -0.010295
v 0.284675 -0.546467 0.023566
v 0.280904 -0.609181 0.041215
v 0.275539 -0.650139 -0.005435
v 0.316101 -0.698286 -0.041447
v 0.340188 -0.683655 -0.113976
v 0.384258 -0.656539 -0.164551
v 0.417139 -0.605127 -0.191921
v 0.398398 -0.498536 -0.304911
v 0.409956 -0.413767 -0.251573
v 0.340559 -0.383751 -0.161606
v 0.292102 -0.380881 -0.064570
v 0.228162 -0.427877 0.011194
v 0.175107 -0.504155 0.039919
v 0.150382 -0.599357 0.065544
v 0.153644 -0.668135 -0.006015
v 0.194759 -0.740233 -0.076475
v 0.258860 -0.739886 -0.184369
v 0.331568 -0.689507 -0.275136
v 0.413336 -0.609120 -0.333763
v 0.359786 -0.451592 -0.417208
v 0.370532 -0.331790 -0.351823
v 0.302390 -0.286237 -0.218639
v 0.221455 -0.295438 -0.089339
v 0.137318 -0.356226 0.018728
v 0.076197 -0.466534 0.039702
v 0.034490 -0.578011 0.052892
v 0.049414 -0.659085 -0.034363
v 0.086880 -0.721385 -0.130950
v 0.156804 -0.731006 -0.251182
v 0.234376 -0.665681 -0.348568
v 0.324817 -0.579232 -0.432553
v 0.252079 -0.417133 -0.468637
v 0.256760 -0.294948 -0.413497
v 0.204912 -0.229469 -0.284379
v 0.121377 -0.243987 -0.143278
v 0.024590 -0.297393 -0.018320
v -0.030849 -0.426757 0.014977
v -0.077353 -0.547873 0.014804
v -0.054371 -0.641824 -0.071992
v -0.001486 -0.686247 -0.183760
v 0.062635 -0.694292 -0.305105
v 0.142248 -0.620530 -0.383366
v 0.209834 -0.536630 -0.462362
v 0.130308 -0.407249 -0.447889
v 0.125505 -0.321381 -0.406081
v 0.084309 -0.255677 -0.325628
v 0.025386 -0.268683 -0.215072
v -0.067330 -0.294901 -0.118682
v -0.113664 -0.398734 -0.075864
v -0.156030 -0.501677 -0.079811
v -0.148561 -0.592176 -0.144873
v -0.083655 -0.629636 -0.242815
v -0.032802 -0.635330 -0.353861
v 0.052198 -0.571828 -0.410330
v 0.101733 -0.495471 -0.461513
v 0.022784 -0.409174 -0.400662
v 0.026197 -0.373939 -0.363363
v -0.007680 -0.333716 -0.332964
v -0.026581 -0.347177 -0.271582
v -0.089846 -0.352698 -0.233357
v -0.121007 -0.400992 -0.207608
v -0.145633 -0.454374 -0.212229
v -0.167772 -0.502657 -0.250222
v -0.121390 -0.529648 -0.300689
v -0.106024 -0.531203 -0.375315
v -0.045369 -0.499748 -0.409757
v -0.010098 -0.451791 -0.431946
v -0.087447 -0.418538 -0.332195
v 0.080221 -0.402127 0.524739
v 0.064194 -0.379440 0.403192
v 0.090197 -0.336328 0.421806
v 0.063511 -0.305884 0.475609
v 0.072195 -0.298874 0.532681
v 0.038865 -0.315059 0.579355
v 0.017553 -0.346248 0.609528
v 0.009214 -0.389480 0.623148
v -0.018706 -0.417201 0.593708
v -0.003279 -0.460612 0.563905
v -0.007430 -0.459821 0.507721
v 0.016999 -0.455605 0.453967
v 0.047674 -0.427943 0.411659
v 0.008213 -0.345542 0.307336
v 0.057296 -0.262899 0.327618
v 0.050951 -0.213404 0.428052
v 0.053210 -0.196059 0.539087
v 0.023347 -0.231407 0.642000
v -0.023006 -0.299935 0.693478
v -0.049134 -0.381281 0.719913
v -0.086700 -0.437472 0.655909
v -0.092221 -0.492879 0.589775
v -0.090159 -0.494636 0.493377
v -0.072581 -0.465649 0.408032
v -0.032256 -0.421750 0.333342
v -0.084681 -0.306953 0.276285
v -0.040049 -0.207561 0.290708
v -0.028410 -0.144788 0.399729
v -0.031305 -0.122219 0.534010
v -0.053662 -0.152523 0.674872
v -0.102836 -0.247960 0.746454
v -0.143848 -0.355935 0.789728
v -0.177176 -0.446389 0.711716
v -0.190921 -0.509470 0.608343
v -0.182768 -0.519626 0.478543
v -0.156807 -0.463893 0.374103
v -0.119533 -0.402156 0.284594
v -0.172094 -0.275606 0.283065
v -0.144323 -0.185511 0.306757
v -0.131170 -0.124023 0.398986
v -0.138438 -0.111482 0.520320
v -0.163892 -0.122445 0.653435
v -0.202558 -0.213082 0.726539
v -0.252843 -0.313757 0.775768
v -0.284765 -0.416550 0.717691
v -0.297091 -0.482119 0.604463
v -0.294861 -0.506777 0.464361
v -0.252089 -0.446376 0.348560
v -0.217043 -0.371908 0.254070
v -0.261134 -0.244976 0.299391
v -0.236045 -0.177754 0.338251
v -0.227665 -0.127430 0.410376
v -0.226031 -0.135436 0.506262
v -0.256002 -0.139068 0.600998
v -0.278133 -0.206658 0.654119
v -0.321272 -0.275924 0.684713
v -0.356848 -0.352669 0.656161
v -0.362673 -0.402805 0.569125
v -0.381411 -0.428323 0.459409
v -0.341424 -0.387768 0.359490
v -0.317668 -0.321584 0.277323
v -0.355267 -0.218283 0.357892
v -0.327250 -0.183106 0.389078
v -0.328137 -0.148417 0.431440
v -0.307341 -0.165314 0.492544
v -0.328039 -0.171766 0.543703
v -0.331551 -0.212572 0.572975
v -0.345012 -0.252696 0.579889
v -0.375727 -0.287300 0.567421
v -0.365963 -0.313793 0.522476
v -0.395891 -0.321303 0.466799
v -0.377251 -0.304474 0.413308
v -0.371702 -0.266781 0.369406
v -0.405653 -0.215790 0.474701
v 0.470609 0.226405 -0.543767
v 0.426465 0.211591 -0.653676
v 0.474838 0.245498 -0.669381
v 0.487432 0.292845 -0.627469
v 0.535772 0.314925 -0.578336
v 0.531295 0.317515 -0.508471
v 0.522081 0.294186 -0.451695
v 0.508798 0.249824 -0.417144
v 0.454081 0.216362 -0.430910
v 0.440095 0.166934 -0.458070
v 0.401437 0.165535 -0.514354
v 0.395036 0.163634 -0.570471
v 0.402467 0.181198 -0.620042
v 0.336095 0.237676 -0.710874
v 0.391493 0.303654 -0.737278
v 0.425380 0.372965 -0.671003
v 0.479414 0.421211 -0.588678
v 0.502190 0.426719 -0.473366
v 0.487049 0.384128 -0.374957
v 0.474788 0.307268 -0.297000
v 0.408276 0.222855 -0.319107
v 0.366404 0.133548 -0.370529
v 0.323727 0.100154 -0.481972
v 0.306155 0.112595 -0.594124
v 0.318337 0.145626 -0.693477
v 0.250270 0.266605 -0.752832
v 0.302715 0.358757 -0.769527
v 0.349505 0.437063 -0.687544
v 0.389571 0.487365 -0.582433
v 0.417216 0.502683 -0.453523
v 0.396450 0.448654 -0.348691
v 0.376236 0.372682 -0.249415
v 0.314252 0.265833 -0.263210
v 0.255639 0.161287 -0.323361
v 0.206997 0.093895 -0.453565
v 0.192284 0.106864 -0.604125
v 0.201865 0.144383 -0.745963
v 0.150180 0.309122 -0.775649
v 0.205288 0.414796 -0.778966
v 0.263891 0.499441 -0.695434
v 0.301762 0.533908 -0.572344
v 0.321336 0.551171 -0.443801
v 0.303047 0.484847 -0.352682
v 0.270452 0.418846 -0.269876
v 0.218224 0.321655 -0.275959
v 0.162816 0.234610 -0.338082
v 0.105331 0.164090 -0.445473
v 0.096861 0.171187 -0.588982
v 0.090439 0.204981 -0.732879
v 0.058925 0.370642 -0.728762
v 0.106097 0.461590 -0.728516
v 0.154080 0.545514 -0.668792
v 0.200026 0.565720 -0.555789
v 0.210795 0.582434 -0.440977
v 0.207285 0.515644 -0.363240
v 0.176949 0.451679 -0.311676
v 0.136170 0.374228 -0.315384
v 0.106827 0.309468 -0.380143
v 0.052791 0.263306 -0.455143
v 0.055805 0.266886 -0.559318
v 0.040849 0.297407 -0.659997
v 0.027165 0.424390 -0.616257
v 0.053229 0.471722 -0.614915
v 0.059301 0.532866 -0.589016
v 0.095865 0.542462 -0.526552
v 0.091462 0.560122 -0.457007
v 0.095911 0.522904 -0.404774
v 0.085202 0.474837 -0.379632
v 0.055545 0.429935 -0.377839
v 0.060755 0.381311 -0.425851
v 0.026946 0.361191 -0.470700
v 0.042563 0.358022 -0.529240
v 0.042789 0.377970 -0.576610
v 0.050853 0.452806 -0.496398
v -0.245684 -0.320798 0.236901
v -0.312164 -0.356513 0.169320
v -0.282018 -0.335166 0.144412
v -0.272211 -0.285254 0.159209
v -0.225835 -0.260502 0.177056
v -0.214174 -0.236551 0.222646
v -0.201154 -0.234881 0.272070
v -0.191819 -0.257819 0.320277
v -0.228385 -0.290030 0.337282
v -0.238047 -0.349461 0.343215
v -0.279049 -0.380334 0.303901
v -0.295584 -0.409742 0.253733
v -0.299542 -0.412921 0.197995
v -0.385600 -0.386218 0.102865
v -0.339637 -0.333395 0.055574
v -0.303425 -0.248056 0.088863
v -0.254381 -0.186319 0.133857
v -0.228964 -0.147359 0.212719
v -0.233672 -0.144695 0.293482
v -0.229016 -0.168858 0.374063
v -0.281068 -0.227733 0.398953
v -0.316129 -0.309956 0.411118
v -0.366038 -0.382251 0.355418
v -0.398624 -0.429721 0.267362
v -0.403556 -0.457579 0.163894
v -0.481326 -0.376000 0.057383
v -0.426194 -0.301969 -0.010138
v -0.357816 -0.195786 0.023432
v -0.299227 -0.110227 0.098489
v -0.259004 -0.055406 0.204070
v -0.273359 -0.067330 0.309543
v -0.285346 -0.094015 0.405170
v -0.344407 -0.171484 0.429178
v -0.399756 -0.255530 0.428666
v -0.456445 -0.339959 0.373381
v -0.491193 -0.384451 0.271445
v -0.510452 -0.422098 0.153909
v -0.561985 -0.311755 0.065838
v -0.517161 -0.236652 -0.003154
v -0.444786 -0.132011 0.009005
v -0.379360 -0.043932 0.091266
v -0.332112 0.027706 0.201181
v -0.335476 0.007545 0.320449
v -0.359073 -0.025146 0.421427
v -0.414764 -0.113793 0.451473
v -0.474157 -0.203670 0.428612
v -0.534272 -0.284941 0.373893
v -0.554134 -0.320468 0.269935
v -0.579223 -0.344054 0.164490
v -0.598130 -0.229046 0.114961
v -0.567614 -0.170534 0.071114
v -0.525661 -0.088149 0.065933
v -0.472047 -0.024217 0.128678
v -0.443155 0.048833 0.210362
v -0.435271 0.039198 0.310675
v -0.459242 0.012427 0.396437
v -0.505740 -0.057679 0.436767
v -0.550040 -0.146393 0.408595
v -0.608668 -0.215585 0.360915
v -0.611311 -0.252717 0.267321
v -0.624425 -0.260676 0.181324
v -0.611096 -0.151578 0.172770
v -0.581328 -0.124200 0.158095
v -0.572304 -0.074893 0.153603
v -0.536552 -0.050883 0.187160
v -0.536076 -0.004318 0.227187
v -0.532308 -0.001486 0.279163
v -0.547745 -0.014591 0.323729
v -0.586014 -0.037374 0.355008
v -0.603741 -0.094007 0.340444
v -0.651292 -0.127929 0.314980
v -0.649845 -0.159184 0.259379
v -0.649666 -0.163394 0.206344
v -0.609701 -0.068541 0.243373
v 0.277345 -0.500000 -0.097366
v 0.258359 -0.476461 -0.090436
v 0.227639 -0.485452 -0.079222
v 0.227639 -0.514548 -0.079222
v 0.258359 -0.523539 -0.090436
v 0.337742 -0.500000 -0.036166
v 0.295551 -0.447692 -0.020765
v 0.227285 -0.467672 0.004154
v 0.227285 -0.532328 0.004154
v 0.295551 -0.552308 -0.020765
v 0.376883 -0.500000 0.105182
v 0.342287 -0.457107 0.117811
v 0.286308 -0.473491 0.138245
v 0.286308 -0.526509 0.138245
v 0.342287 -0.542893 0.117811
v 0.364122 -0.500000 0.225663
v -0.346489 -0.324629 0.141742
v -0.358256 -0.308645 0.165587
v -0.386681 -0.321424 0.178969
v -0.392480 -0.345305 0.163394
v -0.367640 -0.347287 0.140386
v -0.279767 -0.356459 0.165704
v -0.305918 -0.320939 0.218693
v -0.369083 -0.349336 0.248430
v -0.381971 -0.402406 0.213819
v -0.326770 -0.406809 0.162692
v -0.218986 -0.428933 0.254198
v -0.240430 -0.399806 0.297649
v -0.292225 -0.423091 0.322033
v -0.302793 -0.466609 0.293652
v -0.257529 -0.470219 0.251728
v -0.210070 -0.490228 0.344864
v 0.378069 0.211089 -0.285395
v 0.379714 0.216128 -0.254826
v 0.353959 0.203580 -0.236673
v 0.336397 0.190785 -0.256023
v 0.351298 0.195426 -0.286135
v 0.432445 0.165176 -0.304389
v 0.436099 0.176374 -0.236458
v 0.378866 0.148489 -0.196119
v 0.339840 0.120058 -0.239119
v 0.372953 0.130371 -0.306034
v 0.485285 0.058700 -0.281945
v 0.488282 0.067882 -0.226241
v 0.441350 0.045017 -0.193163
v 0.409349 0.021703 -0.228423
v 0.436501 0.030160 -0.283293
v 0.496888 -0.032258 -0.232335
v -0.442038 0.235536 -0.198559
v -0.428627 0.230313 -0.171074
v -0.449767 0.221350 -0.146114
v -0.476244 0.221033 -0.158172
v -0.471467 0.229801 -0.190585
v -0.420582 0.187671 -0.244414
v -0.390779 0.176064 -0.183336
v -0.437758 0.156145 -0.127869
v -0.496596 0.155442 -0.154666
v -0.485980 0.174925 -0.226694
v -0.411589 0.076893 -0.261250
v -0.387151 0.067375 -0.211166
v -0.425674 0.051042 -0.165683
v -0.473921 0.050465 -0.187656
v -0.465216 0.066441 -0.246720
v -0.422568 -0.017636 -0.234662
v 0.127604 0.520703 -0.422144
v 0.145191 0.506978 -0.400583
v 0.131212 0.504743 -0.369763
v 0.104985 0.517088 -0.372276
v 0.102755 0.526951 -0.404649
v 0.111374 0.476345 -0.470654
v 0.150457 0.445845 -0.422741
v 0.119391 0.440879 -0.354252
v 0.061110 0.468311 -0.359837
v 0.056155 0.490230 -0.431777
v 0.066923 0.378889 -0.485467
v 0.098970 0.353878 -0.446178
v 0.073497 0.349806 -0.390017
v 0.025706 0.372301 -0.394597
v 0.021643 0.390274 -0.453588
v 0.025832 0.298114 -0.453406
v 0.000000 0.000000 -0.430000
v 0.111246 0.000000 -0.443215
v 0.104537 0.035935 -0.443215
v 0.085219 0.067535 -0.443215
v 0.055623 0.090990 -0.443215
v 0.019318 0.103470 -0.443215
v -0.019318 0.103470 -0.443215
v -0.055623 0.090990 -0.443215
v -0.085219 0.067535 -0.443215
v -0.104537 0.035935 -0.443215
v -0.111246 0.000000 -0.443215
v -0.104537 -0.035935 -0.443215
v -0.085219 -0.067535 -0.443215
v -0.055623 -0.090990 -0.443215
v -0.019318 -0.103470 -0.443215
v 0.019318 -0.103470 -0.443215
v 0.055623 -0.090990 -0.443215
v 0.085219 -0.067535 -0.443215
v 0.104537 -0.035935 -0.443215
v 0.211603 0.000000 -0.481565
v 0.198841 0.068352 -0.481565
v 0.162097 0.128459 -0.481565
v 0.105801 0.173073 -0.481565
v 0.036744 0.196811 -0.481565
v -0.036744 0.196811 -0.481565
v -0.105801 0.173073 -0.481565
v -0.162097 0.128459 -0.481565
v -0.198841 0.068352 -0.481565
v -0.211603 0.000000 -0.481565
v -0.198841 -0.068352 -0.481565
v -0.162097 -0.128459 -0.481565
v -0.105801 -0.173073 -0.481565
v -0.036744 -0.196811 -0.481565
v 0.036744 -0.196811 -0.481565
v 0.105801 -0.173073 -0.481565
v 0.162097 -0.128459 -0.481565
v 0.198841 -0.068352 -0.481565
v 0.291246 0.000000 -0.541298
v 0.273682 0.094078 -0.541298
v 0.223107 0.176809 -0.541298
v 0.145623 0.238214 -0.541298
v 0.050574 0.270887 -0.541298
v -0.050574 0.270887 -0.541298
v -0.145623 0.238214 -0.541298
v -0.223107 0.176809 -0.541298
v -0.273682 0.094078 -0.541298
v -0.291246 0.000000 -0.541298
v -0.273682 -0.094078 -0.541298
v -0.223107 -0.176809 -0.541298
v -0.145623 -0.238214 -0.541298
v -0.050574 -0.270887 -0.541298
v 0.050574 -0.270887 -0.541298
v 0.145623 -0.238214 -0.541298
v 0.223107 -0.176809 -0.541298
v 0.273682 -0.094078 -0.541298
v 0.342380 0.000000 -0.616565
v 0.321732 0.110595 -0.616565
v 0.262279 0.207851 -0.616565
v 0.171190 0.280037 -0.616565
v 0.059454 0.318447 -0.616565
v -0.059454 0.318447 -0.616565
v -0.171190 0.280037 -0.616565
v -0.262279 0.207851 -0.616565
v -0.321732 0.110595 -0.616565
v -0.342380 0.000000 -0.616565
v -0.321732 -0.110595 -0.616565
v -0.262279 -0.207851 -0.616565
v -0.171190 -0.280037 -0.616565
v -0.059454 -0.318447 -0.616565
v 0.059454 -0.318447 -0.616565
v 0.171190 -0.280037 -0.616565
v 0.262279 -0.207851 -0.616565
v 0.321732 -0.110595 -0.616565
v 0.360000 0.000000 -0.700000
v 0.338289 0.116287 -0.700000
v 0.275776 0.218548 -0.700000
v 0.180000 0.294449 -0.700000
v 0.062513 0.334835 -0.700000
v -0.062513 0.334835 -0.700000
v -0.180000 0.294449 -0.700000
v -0.275776 0.218548 -0.700000
v -0.338289 0.116287 -0.700000
v -0.360000 0.000000 -0.700000
v -0.338289 -0.116287 -0.700000
v -0.275776 -0.218548 -0.700000
v -0.180000 -0.294449 -0.700000
v -0.062513 -0.334835 -0.700000
v 0.062513 -0.334835 -0.700000
v 0.180000 -0.294449 -0.700000
v 0.275776 -0.218548 -0.700000
v 0.338289 -0.116287 -0.700000
v 0.342380 0.000000 -0.783435
v 0.321732 0.110595 -0.783435
v 0.262279 0.207851 -0.783435
v 0.171190 0.280037 -0.783435
v 0.059454 0.318447 -0.783435
v -0.059454 0.318447 -0.783435
v -0.171190 0.280037 -0.783435
v -0.262279 0.207851 -0.783435
v -0.321732 0.110595 -0.783435
v -0.342380 0.000000 -0.783435
v -0.321732 -0.110595 -0.783435
v -0.262279 -0.207851 -0.783435
v -0.171190 -0.280037 -0.783435
v -0.059454 -0.318447 -0.783435
v 0.059454 -0.318447 -0.783435
v 0.171190 -0.280037 -0.783435
v 0.262279 -0.207851 -0.783435
v 0.321732 -0.110595 -0.783435
v 0.291246 0.000000 -0.858702
v 0.273682 0.094078 -0.858702
v 0.223107 0.176809 -0.858702
v 0.145623 0.238214 -0.858702
v 0.050574 0.270887 -0.858702
v -0.050574 0.270887 -0.858702
v -0.145623 0.238214 -0.858702
v -0.223107 0.176809 -0.858702
v -0.273682 0.094078 -0.858702
v -0.291246 0.000000 -0.858702
v -0.273682 -0.094078 -0.858702
v -0.223107 -0.176809 -0.858702
v -0.145623 -0.238214 -0.858702
v -0.050574 -0.270887 -0.858702
v 0.050574 -0.270887 -0.858702
v 0.145623 -0.238214 -0.858702
v 0.223107 -0.176809 -0.858702
v 0.273682 -0.094078 -0.858702
v 0.211603 0.000000 -0.918435
v 0.198841 0.068352 -0.918435
v 0.162097 0.128459 -0.918435
v 0.105801 0.173073 -0.918435
v 0.036744 0.196811 -0.918435
v -0.036744 0.196811 -0.918435
v -0.105801 0.173073 -0.918435
v -0.162097 0.128459 -0.918435
v -0.198841 0.068352 -0.918435
v -0.211603 0.000000 -0.918435
v -0.198841 -0.068352 -0.918435
v -0.162097 -0.128459 -0.918435
v -0.105801 -0.173073 -0.918435
v -0.036744 -0.196811 -0.918435
v 0.036744 -0.196811 -0.918435
v 0.105801 -0.173073 -0.918435
v 0.162097 -0.128459 -0.918435
v 0.198841 -0.068352 -0.918435
v 0.111246 0.000000 -0.956785
v 0.104537 0.035935 -0.956785
v 0.085219 0.067535 -0.956785
v 0.055623 0.090990 -0.956785
v 0.019318 0.103470 -0.956785
v -0.019318 0.103470 -0.956785
v -0.055623 0.090990 -0.956785
v -0.085219 0.067535 -0.956785
v -0.104537 0.035935 -0.956785
v -0.111246 0.000000 -0.956785
v -0.104537 -0.035935 -0.956785
v -0.085219 -0.067535 -0.956785
v -0.055623 -0.090990 -0.956785
v -0.019318 -0.103470 -0.956785
v 0.019318 -0.103470 -0.956785
v 0.055623 -0.090990 -0.956785
v 0.085219 -0.067535 -0.956785
v 0.104537 -0.035935 -0.956785
v 0.000000 0.000000 -0.970000
v 0.520000 0.000000 0.355000
v 0.488640 0.177850 0.355000
v 0.398343 0.334250 0.355000
v 0.260000 0.450333 0.355000
v 0.090297 0.512100 0.355000
v -0.090297 0.512100 0.355000
v -0.260000 0.450333 0.355000
v -0.398343 0.334250 0.355000
v -0.488640 0.177850 0.355000
v -0.520000 0.000000 0.355000
v -0.488640 -0.177850 0.355000
v -0.398343 -0.334250 0.355000
v -0.260000 -0.450333 0.355000
v -0.090297 -0.512100 0.355000
v 0.090297 -0.512100 0.355000
v 0.260000 -0.450333 0.355000
v 0.398343 -0.334250 0.355000
v 0.488640 -0.177850 0.355000
v 0.180000 0.000000 1.605000
v 0.169145 0.061564 1.605000
v 0.137888 0.115702 1.605000
v 0.090000 0.155885 1.605000
v 0.031257 0.177265 1.605000
v -0.031257 0.177265 1.605000
v -0.090000 0.155885 1.605000
v -0.137888 0.115702 1.605000
v -0.169145 0.061564 1.605000
v -0.180000 0.000000 1.605000
v -0.169145 -0.061564 1.605000
v -0.137888 -0.115702 1.605000
v -0.090000 -0.155885 1.605000
v -0.031257 -0.177265 1.605000
v 0.031257 -0.177265 1.605000
v 0.090000 -0.155885 1.605000
v 0.137888 -0.115702 1.605000
v 0.169145 -0.061564 1.605000
v 0.000000 0.000000 0.355000
v 0.000000 0.000000 1.605000
v 0.300000 0.000000 0.515000
v 0.277164 0.114805 0.515000
v 0.212132 0.212132 0.515000
v 0.114805 0.277164 0.515000
v 0.000000 0.300000 0.515000
v -0.114805 0.277164 0.515000
v -0.212132 0.212132 0.515000
v -0.277164 0.114805 0.515000
v -0.300000 0.000000 0.515000
v -0.277164 -0.114805 0.515000
v -0.212132 -0.212132 0.515000
v -0.114805 -0.277164 0.515000
v -0.000000 -0.300000 0.515000
v 0.114805 -0.277164 0.515000
v 0.212132 -0.212132 0.515000
v 0.277164 -0.114805 0.515000
v 0.050000 0.000000 2.165000
v 0.046194 0.019134 2.165000
v 0.035355 0.035355 2.165000
v 0.019134 0.046194 2.165000
v 0.000000 0.050000 2.165000
v -0.019134 0.046194 2.165000
v -0.035355 0.035355 2.165000
v -0.046194 0.019134 2.165000
v -0.050000 0.000000 2.165000
v -0.046194 -0.019134 2.165000
v -0.035355 -0.035355 2.165000
v -0.019134 -0.046194 2.165000
v -0.000000 -0.050000 2.165000
v 0.019134 -0.046194 2.165000
v 0.035355 -0.035355 2.165000
v 0.046194 -0.019134 2.165000
v 0.000000 0.000000 0.515000
v 0.000000 0.000000 2.165000
v 0.584225 0.000000 0.420558
v 0.563217 0.080000 0.416299
v 0.505820 0.138564 0.404664
v 0.427415 0.160000 0.388771
v 0.349009 0.138564 0.372877
v 0.291612 0.080000 0.361242
v 0.270604 0.000000 0.356984
v 0.291612 -0.080000 0.361242
v 0.349009 -0.138564 0.372877
v 0.427415 -0.160000 0.388771
v 0.505820 -0.138564 0.404664
v 0.563217 -0.080000 0.416299
v 0.252585 0.000000 1.251229
v 0.252585 0.000000 1.251229
v 0.252585 0.000000 1.251229
v 0.252585 0.000000 1.251229
v 0.252585 0.000000 1.251229
v 0.252585 0.000000 1.251229
v 0.252585 0.000000 1.251229
v 0.252585 0.000000 1.251229
v 0.252585 0.000000 1.251229
v 0.252585 0.000000 1.251229
v 0.252585 0.000000 1.251229
v 0.252585 0.000000 1.251229
v 0.427415 0.000000 0.388771
v 0.252585 0.000000 1.251229
v -0.054069 0.370278 0.372775
v -0.074021 0.449081 0.388634
v -0.131285 0.506769 0.404523
v -0.210517 0.527884 0.416185
v -0.290486 0.506769 0.420496
v -0.349765 0.449081 0.416300
v -0.372470 0.370278 0.404722
v -0.352518 0.291475 0.388864
v -0.295254 0.233788 0.372975
v -0.216022 0.212672 0.361312
v -0.136053 0.233788 0.357001
v -0.076774 0.291475 0.361197
v -0.126731 0.218619 1.251251
v -0.126731 0.218619 1.251251
v -0.126731 0.218619 1.251251
v -0.126731 0.218619 1.251251
v -0.126731 0.218619 1.251251
v -0.126731 0.218619 1.251251
v -0.126731 0.218619 1.251251
v -0.126731 0.218619 1.251251
v -0.126731 0.218619 1.251251
v -0.126731 0.218619 1.251251
v -0.126731 0.218619 1.251251
v -0.126731 0.218619 1.251251
v -0.213269 0.370278 0.388749
v -0.126731 0.218619 1.251251
v -0.054069 -0.370278 0.372775
v -0.076774 -0.291475 0.361197
v -0.136053 -0.233788 0.357001
v -0.216022 -0.212672 0.361312
v -0.295254 -0.233788 0.372975
v -0.352518 -0.291475 0.388864
v -0.372470 -0.370278 0.404722
v -0.349765 -0.449081 0.416300
v -0.290486 -0.506769 0.420496
v -0.210517 -0.527884 0.416185
v -0.131285 -0.506769 0.404523
v -0.074021 -0.449081 0.388634
v -0.126731 -0.218619 1.251251
v -0.126731 -0.218619 1.251251
v -0.126731 -0.218619 1.251251
v -0.126731 -0.218619 1.251251
v -0.126731 -0.218619 1.251251
v -0.126731 -0.218619 1.251251
v -0.126731 -0.218619 1.251251
v -0.126731 -0.218619 1.251251
v -0.126731 -0.218619 1.251251
v -0.126731 -0.218619 1.251251
v -0.126731 -0.218619 1.251251
v -0.126731 -0.218619 1.251251
v -0.213269 -0.370278 0.388749
v -0.126731 -0.218619 1.251251
o MeteorCore
usemtl MeteorRock
s off
f 1 2 3
f 1 3 4
f 1 4 5
f 1 5 6
f 1 6 7
f 1 7 8
f 1 8 9
f 1 9 10
f 1 10 11
f 1 11 12
f 1 12 13
f 1 13 14
f 1 14 15
f 1 15 16
f 1 16 17
f 1 17 18
f 1 18 19
f 1 19 20
f 1 20 21
f 1 21 22
f 1 22 23
f 1 23 2
f 2 24 25 3
f 3 25 26 4
f 4 26 27 5
f 5 27 28 6
f 6 28 29 7
f 7 29 30 8
f 8 30 31 9
f 9 31 32 10
f 10 32 33 11
f 11 33 34 12
f 12 34 35 13
f 13 35 36 14
f 14 36 37 15
f 15 37 38 16
f 16 38 39 17
f 17 39 40 18
f 18 40 41 19
f 19 41 42 20
f 20 42 43 21
f 21 43 44 22
f 22 44 45 23
f 23 45 24 2
f 24 46 47 25
f 25 47 48 26
f 26 48 49 27
f 27 49 50 28
f 28 50 51 29
f 29 51 52 30
f 30 52 53 31
f 31 53 54 32
f 32 54 55 33
f 33 55 56 34
f 34 56 57 35
f 35 57 58 36
f 36 58 59 37
f 37 59 60 38
f 38 60 61 39
f 39 61 62 40
f 40 62 63 41
f 41 63 64 42
f 42 64 65 43
f 43 65 66 44
f 44 66 67 45
f 45 67 46 24
f 46 68 69 47
f 47 69 70 48
f 48 70 71 49
f 49 71 72 50
f 50 72 73 51
f 51 73 74 52
f 52 74 75 53
f 53 75 76 54
f 54 76 77 55
f 55 77 78 56
f 56 78 79 57
f 57 79 80 58
f 58 80 81 59
f 59 81 82 60
f 60 82 83 61
f 61 83 84 62
f 62 84 85 63
f 63 85 86 64
f 64 86 87 65
f 65 87 88 66
f 66 88 89 67
f 67 89 68 46
f 68 90 91 69
f 69 91 92 70
f 70 92 93 71
f 71 93 94 72
f 72 94 95 73
f 73 95 96 74
f 74 96 97 75
f 75 97 98 76
f 76 98 99 77
f 77 99 100 78
f 78 100 101 79
f 79 101 102 80
f 80 102 103 81
f 81 103 104 82
f 82 104 105 83
f 83 105 106 84
f 84 106 107 85
f 85 107 108 86
f 86 108 109 87
f 87 109 110 88
f 88 110 111 89
f 89 111 90 68
f 90 112 113 91
f 91 113 114 92
f 92 114 115 93
f 93 115 116 94
f 94 116 117 95
f 95 117 118 96
f 96 118 119 97
f 97 119 120 98
f 98 120 121 99
f 99 121 122 100
f 100 122 123 101
f 101 123 124 102
f 102 124 125 103
f 103 125 126 104
f 104 126 127 105
f 105 127 128 106
f 106 128 129 107
f 107 129 130 108
f 108 130 131 109
f 109 131 132 110
f 110 132 133 111
f 111 133 112 90
f 112 134 135 113
f 113 135 136 114
f 114 136 137 115
f 115 137 138 116
f 116 138 139 117
f 117 139 140 118
f 118 140 141 119
f 119 141 142 120
f 120 142 143 121
f 121 143 144 122
f 122 144 145 123
f 123 145 146 124
f 124 146 147 125
f 125 147 148 126
f 126 148 149 127
f 127 149 150 128
f 128 150 151 129
f 129 151 152 130
f 130 152 153 131
f 131 153 154 132
f 132 154 155 133
f 133 155 134 112
f 134 156 157 135
f 135 157 158 136
f 136 158 159 137
f 137 159 160 138
f 138 160 161 139
f 139 161 162 140
f 140 162 163 141
f 141 163 164 142
f 142 164 165 143
f 143 165 166 144
f 144 166 167 145
f 145 167 168 146
f 146 168 169 147
f 147 169 170 148
f 148 170 171 149
f 149 171 172 150
f 150 172 173 151
f 151 173 174 152
f 152 174 175 153
f 153 175 176 154
f 154 176 177 155
f 155 177 156 134
f 156 178 179 157
f 157 179 180 158
f 158 180 181 159
f 159 181 182 160
f 160 182 183 161
f 161 183 184 162
f 162 184 185 163
f 163 185 186 164
f 164 186 187 165
f 165 187 188 166
f 166 188 189 167
f 167 189 190 168
f 168 190 191 169
f 169 191 192 170
f 170 192 193 171
f 171 193 194 172
f 172 194 195 173
f 173 195 196 174
f 174 196 197 175
f 175 197 198 176
f 176 198 199 177
f 177 199 178 156
f 178 200 201 179
f 179 201 202 180
f 180 202 203 181
f 181 203 204 182
f 182 204 205 183
f 183 205 206 184
f 184 206 207 185
f 185 207 208 186
f 186 208 209 187
f 187 209 210 188
f 188 210 211 189
f 189 211 212 190
f 190 212 213 191
f 191 213 214 192
f 192 214 215 193
f 193 215 216 194
f 194 216 217 195
f 195 217 218 196
f 196 218 219 197
f 197 219 220 198
f 198 220 221 199
f 199 221 200 178
f 200 222 223 201
f 201 223 224 202
f 202 224 225 203
f 203 225 226 204
f 204 226 227 205
f 205 227 228 206
f 206 228 229 207
f 207 229 230 208
f 208 230 231 209
f 209 231 232 210
f 210 232 233 211
f 211 233 234 212
f 212 234 235 213
f 213 235 236 214
f 214 236 237 215
f 215 237 238 216
f 216 238 239 217
f 217 239 240 218
f 218 240 241 219
f 219 241 242 220
f 220 242 243 221
f 221 243 222 200
f 222 244 245 223
f 223 245 246 224
f 224 246 247 225
f 225 247 248 226
f 226 248 249 227
f 227 249 250 228
f 228 250 251 229
f 229 251 252 230
f 230 252 253 231
f 231 253 254 232
f 232 254 255 233
f 233 255 256 234
f 234 256 257 235
f 235 257 258 236
f 236 258 259 237
f 237 259 260 238
f 238 260 261 239
f 239 261 262 240
f 240 262 263 241
f 241 263 264 242
f 242 264 265 243
f 243 265 244 222
f 266 245 244
f 266 246 245
f 266 247 246
f 266 248 247
f 266 249 248
f 266 250 249
f 266 251 250
f 266 252 251
f 266 253 252
f 266 254 253
f 266 255 254
f 266 256 255
f 266 257 256
f 266 258 257
f 266 259 258
f 266 260 259
f 266 261 260
f 266 262 261
f 266 263 262
f 266 264 263
f 266 265 264
f 266 244 265
o RockChunk_1
usemtl MeteorRock
s off
f 267 268 269
f 267 269 270
f 267 270 271
f 267 271 272
f 267 272 273
f 267 273 274
f 267 274 275
f 267 275 276
f 267 276 277
f 267 277 278
f 267 278 279
f 267 279 268
f 268 280 281 269
f 269 281 282 270
f 270 282 283 271
f 271 283 284 272
f 272 284 285 273
f 273 285 286 274
f 274 286 287 275
f 275 287 288 276
f 276 288 289 277
f 277 289 290 278
f 278 290 291 279
f 279 291 280 268
f 280 292 293 281
f 281 293 294 282
f 282 294 295 283
f 283 295 296 284
f 284 296 297 285
f 285 297 298 286
f 286 298 299 287
f 287 299 300 288
f 288 300 301 289
f 289 301 302 290
f 290 302 303 291
f 291 303 292 280
f 292 304 305 293
f 293 305 306 294
f 294 306 307 295
f 295 307 308 296
f 296 308 309 297
f 297 309 310 298
f 298 310 311 299
f 299 311 312 300
f 300 312 313 301
f 301 313 314 302
f 302 314 315 303
f 303 315 304 292
f 304 316 317 305
f 305 317 318 306
f 306 318 319 307
f 307 319 320 308
f 308 320 321 309
f 309 321 322 310
f 310 322 323 311
f 311 323 324 312
f 312 324 325 313
f 313 325 326 314
f 314 326 327 315
f 315 327 316 304
f 316 328 329 317
f 317 329 330 318
f 318 330 331 319
f 319 331 332 320
f 320 332 333 321
f 321 333 334 322
f 322 334 335 323
f 323 335 336 324
f 324 336 337 325
f 325 337 338 326
f 326 338 339 327
f 327 339 328 316
f 340 329 328
f 340 330 329
f 340 331 330
f 340 332 331
f 340 333 332
f 340 334 333
f 340 335 334
f 340 336 335
f 340 337 336
f 340 338 337
f 340 339 338
f 340 328 339
o RockChunk_2
usemtl MeteorRock
s off
f 341 342 343
f 341 343 344
f 341 344 345
f 341 345 346
f 341 346 347
f 341 347 348
f 341 348 349
f 341 349 350
f 341 350 351
f 341 351 352
f 341 352 353
f 341 353 342
f 342 354 355 343
f 343 355 356 344
f 344 356 357 345
f 345 357 358 346
f 346 358 359 347
f 347 359 360 348
f 348 360 361 349
f 349 361 362 350
f 350 362 363 351
f 351 363 364 352
f 352 364 365 353
f 353 365 354 342
f 354 366 367 355
f 355 367 368 356
f 356 368 369 357
f 357 369 370 358
f 358 370 371 359
f 359 371 372 360
f 360 372 373 361
f 361 373 374 362
f 362 374 375 363
f 363 375 376 364
f 364 376 377 365
f 365 377 366 354
f 366 378 379 367
f 367 379 380 368
f 368 380 381 369
f 369 381 382 370
f 370 382 383 371
f 371 383 384 372
f 372 384 385 373
f 373 385 386 374
f 374 386 387 375
f 375 387 388 376
f 376 388 389 377
f 377 389 378 366
f 378 390 391 379
f 379 391 392 380
f 380 392 393 381
f 381 393 394 382
f 382 394 395 383
f 383 395 396 384
f 384 396 397 385
f 385 397 398 386
f 386 398 399 387
f 387 399 400 388
f 388 400 401 389
f 389 401 390 378
f 390 402 403 391
f 391 403 404 392
f 392 404 405 393
f 393 405 406 394
f 394 406 407 395
f 395 407 408 396
f 396 408 409 397
f 397 409 410 398
f 398 410 411 399
f 399 411 412 400
f 400 412 413 401
f 401 413 402 390
f 414 403 402
f 414 404 403
f 414 405 404
f 414 406 405
f 414 407 406
f 414 408 407
f 414 409 408
f 414 410 409
f 414 411 410
f 414 412 411
f 414 413 412
f 414 402 413
o RockChunk_3
usemtl MeteorRock
s off
f 415 416 417
f 415 417 418
f 415 418 419
f 415 419 420
f 415 420 421
f 415 421 422
f 415 422 423
f 415 423 424
f 415 424 425
f 415 425 426
f 415 426 427
f 415 427 416
f 416 428 429 417
f 417 429 430 418
f 418 430 431 419
f 419 431 432 420
f 420 432 433 421
f 421 433 434 422
f 422 434 435 423
f 423 435 436 424
f 424 436 437 425
f 425 437 438 426
f 426 438 439 427
f 427 439 428 416
f 428 440 441 429
f 429 441 442 430
f 430 442 443 431
f 431 443 444 432
f 432 444 445 433
f 433 445 446 434
f 434 446 447 435
f 435 447 448 436
f 436 448 449 437
f 437 449 450 438
f 438 450 451 439
f 439 451 440 428
f 440 452 453 441
f 441 453 454 442
f 442 454 455 443
f 443 455 456 444
f 444 456 457 445
f 445 457 458 446
f 446 458 459 447
f 447 459 460 448
f 448 460 461 449
f 449 461 462 450
f 450 462 463 451
f 451 463 452 440
f 452 464 465 453
f 453 465 466 454
f 454 466 467 455
f 455 467 468 456
f 456 468 469 457
f 457 469 470 458
f 458 470 471 459
f 459 471 472 460
f 460 472 473 461
f 461 473 474 462
f 462 474 475 463
f 463 475 464 452
f 464 476 477 465
f 465 477 478 466
f 466 478 479 467
f 467 479 480 468
f 468 480 481 469
f 469 481 482 470
f 470 482 483 471
f 471 483 484 472
f 472 484 485 473
f 473 485 486 474
f 474 486 487 475
f 475 487 476 464
f 488 477 476
f 488 478 477
f 488 479 478
f 488 480 479
f 488 481 480
f 488 482 481
f 488 483 482
f 488 484 483
f 488 485 484
f 488 486 485
f 488 487 486
f 488 476 487
o RockChunk_4
usemtl MeteorRock
s off
f 489 490 491
f 489 491 492
f 489 492 493
f 489 493 494
f 489 494 495
f 489 495 496
f 489 496 497
f 489 497 498
f 489 498 499
f 489 499 500
f 489 500 501
f 489 501 490
f 490 502 503 491
f 491 503 504 492
f 492 504 505 493
f 493 505 506 494
f 494 506 507 495
f 495 507 508 496
f 496 508 509 497
f 497 509 510 498
f 498 510 511 499
f 499 511 512 500
f 500 512 513 501
f 501 513 502 490
f 502 514 515 503
f 503 515 516 504
f 504 516 517 505
f 505 517 518 506
f 506 518 519 507
f 507 519 520 508
f 508 520 521 509
f 509 521 522 510
f 510 522 523 511
f 511 523 524 512
f 512 524 525 513
f 513 525 514 502
f 514 526 527 515
f 515 527 528 516
f 516 528 529 517
f 517 529 530 518
f 518 530 531 519
f 519 531 532 520
f 520 532 533 521
f 521 533 534 522
f 522 534 535 523
f 523 535 536 524
f 524 536 537 525
f 525 537 526 514
f 526 538 539 527
f 527 539 540 528
f 528 540 541 529
f 529 541 542 530
f 530 542 543 531
f 531 543 544 532
f 532 544 545 533
f 533 545 546 534
f 534 546 547 535
f 535 547 548 536
f 536 548 549 537
f 537 549 538 526
f 538 550 551 539
f 539 551 552 540
f 540 552 553 541
f 541 553 554 542
f 542 554 555 543
f 543 555 556 544
f 544 556 557 545
f 545 557 558 546
f 546 558 559 547
f 547 559 560 548
f 548 560 561 549
f 549 561 550 538
f 562 551 550
f 562 552 551
f 562 553 552
f 562 554 553
f 562 555 554
f 562 556 555
f 562 557 556
f 562 558 557
f 562 559 558
f 562 560 559
f 562 561 560
f 562 550 561
o RockChunk_5
usemtl MeteorRock
s off
f 563 564 565
f 563 565 566
f 563 566 567
f 563 567 568
f 563 568 569
f 563 569 570
f 563 570 571
f 563 571 572
f 563 572 573
f 563 573 574
f 563 574 575
f 563 575 564
f 564 576 577 565
f 565 577 578 566
f 566 578 579 567
f 567 579 580 568
f 568 580 581 569
f 569 581 582 570
f 570 582 583 571
f 571 583 584 572
f 572 584 585 573
f 573 585 586 574
f 574 586 587 575
f 575 587 576 564
f 576 588 589 577
f 577 589 590 578
f 578 590 591 579
f 579 591 592 580
f 580 592 593 581
f 581 593 594 582
f 582 594 595 583
f 583 595 596 584
f 584 596 597 585
f 585 597 598 586
f 586 598 599 587
f 587 599 588 576
f 588 600 601 589
f 589 601 602 590
f 590 602 603 591
f 591 603 604 592
f 592 604 605 593
f 593 605 606 594
f 594 606 607 595
f 595 607 608 596
f 596 608 609 597
f 597 609 610 598
f 598 610 611 599
f 599 611 600 588
f 600 612 613 601
f 601 613 614 602
f 602 614 615 603
f 603 615 616 604
f 604 616 617 605
f 605 617 618 606
f 606 618 619 607
f 607 619 620 608
f 608 620 621 609
f 609 621 622 610
f 610 622 623 611
f 611 623 612 600
f 612 624 625 613
f 613 625 626 614
f 614 626 627 615
f 615 627 628 616
f 616 628 629 617
f 617 629 630 618
f 618 630 631 619
f 619 631 632 620
f 620 632 633 621
f 621 633 634 622
f 622 634 635 623
f 623 635 624 612
f 636 625 624
f 636 626 625
f 636 627 626
f 636 628 627
f 636 629 628
f 636 630 629
f 636 631 630
f 636 632 631
f 636 633 632
f 636 634 633
f 636 635 634
f 636 624 635
o RockChunk_6
usemtl MeteorRock
s off
f 637 638 639
f 637 639 640
f 637 640 641
f 637 641 642
f 637 642 643
f 637 643 644
f 637 644 645
f 637 645 646
f 637 646 647
f 637 647 648
f 637 648 649
f 637 649 638
f 638 650 651 639
f 639 651 652 640
f 640 652 653 641
f 641 653 654 642
f 642 654 655 643
f 643 655 656 644
f 644 656 657 645
f 645 657 658 646
f 646 658 659 647
f 647 659 660 648
f 648 660 661 649
f 649 661 650 638
f 650 662 663 651
f 651 663 664 652
f 652 664 665 653
f 653 665 666 654
f 654 666 667 655
f 655 667 668 656
f 656 668 669 657
f 657 669 670 658
f 658 670 671 659
f 659 671 672 660
f 660 672 673 661
f 661 673 662 650
f 662 674 675 663
f 663 675 676 664
f 664 676 677 665
f 665 677 678 666
f 666 678 679 667
f 667 679 680 668
f 668 680 681 669
f 669 681 682 670
f 670 682 683 671
f 671 683 684 672
f 672 684 685 673
f 673 685 674 662
f 674 686 687 675
f 675 687 688 676
f 676 688 689 677
f 677 689 690 678
f 678 690 691 679
f 679 691 692 680
f 680 692 693 681
f 681 693 694 682
f 682 694 695 683
f 683 695 696 684
f 684 696 697 685
f 685 697 686 674
f 686 698 699 687
f 687 699 700 688
f 688 700 701 689
f 689 701 702 690
f 690 702 703 691
f 691 703 704 692
f 692 704 705 693
f 693 705 706 694
f 694 706 707 695
f 695 707 708 696
f 696 708 709 697
f 697 709 698 686
f 710 699 698
f 710 700 699
f 710 701 700
f 710 702 701
f 710 703 702
f 710 704 703
f 710 705 704
f 710 706 705
f 710 707 706
f 710 708 707
f 710 709 708
f 710 698 709
o MagmaSeam_1
usemtl Magma
s off
f 711 712 717 716
f 712 713 718 717
f 713 714 719 718
f 714 715 720 719
f 715 711 716 720
f 716 717 722 721
f 717 718 723 722
f 718 719 724 723
f 719 720 725 724
f 720 716 721 725
f 721 722 726
f 722 723 726
f 723 724 726
f 724 725 726
f 725 721 726
f 715 714 713 712 711
o MagmaSeam_2
usemtl Magma
s off
f 727 728 733 732
f 728 729 734 733
f 729 730 735 734
f 730 731 736 735
f 731 727 732 736
f 732 733 738 737
f 733 734 739 738
f 734 735 740 739
f 735 736 741 740
f 736 732 737 741
f 737 738 742
f 738 739 742
f 739 740 742
f 740 741 742
f 741 737 742
f 731 730 729 728 727
o MagmaSeam_3
usemtl Magma
s off
f 743 744 749 748
f 744 745 750 749
f 745 746 751 750
f 746 747 752 751
f 747 743 748 752
f 748 749 754 753
f 749 750 755 754
f 750 751 756 755
f 751 752 757 756
f 752 748 753 757
f 753 754 758
f 754 755 758
f 755 756 758
f 756 757 758
f 757 753 758
f 747 746 745 744 743
o MagmaSeam_4
usemtl Magma
s off
f 759 760 765 764
f 760 761 766 765
f 761 762 767 766
f 762 763 768 767
f 763 759 764 768
f 764 765 770 769
f 765 766 771 770
f 766 767 772 771
f 767 768 773 772
f 768 764 769 773
f 769 770 774
f 770 771 774
f 771 772 774
f 772 773 774
f 773 769 774
f 763 762 761 760 759
o MagmaSeam_5
usemtl Magma
s off
f 775 776 781 780
f 776 777 782 781
f 777 778 783 782
f 778 779 784 783
f 779 775 780 784
f 780 781 786 785
f 781 782 787 786
f 782 783 788 787
f 783 784 789 788
f 784 780 785 789
f 785 786 790
f 786 787 790
f 787 788 790
f 788 789 790
f 789 785 790
f 779 778 777 776 775
o ImpactCore
usemtl HotMagma
s 1
f 791 792 793
f 791 793 794
f 791 794 795
f 791 795 796
f 791 796 797
f 791 797 798
f 791 798 799
f 791 799 800
f 791 800 801
f 791 801 802
f 791 802 803
f 791 803 804
f 791 804 805
f 791 805 806
f 791 806 807
f 791 807 808
f 791 808 809
f 791 809 792
f 792 810 811 793
f 793 811 812 794
f 794 812 813 795
f 795 813 814 796
f 796 814 815 797
f 797 815 816 798
f 798 816 817 799
f 799 817 818 800
f 800 818 819 801
f 801 819 820 802
f 802 820 821 803
f 803 821 822 804
f 804 822 823 805
f 805 823 824 806
f 806 824 825 807
f 807 825 826 808
f 808 826 827 809
f 809 827 810 792
f 810 828 829 811
f 811 829 830 812
f 812 830 831 813
f 813 831 832 814
f 814 832 833 815
f 815 833 834 816
f 816 834 835 817
f 817 835 836 818
f 818 836 837 819
f 819 837 838 820
f 820 838 839 821
f 821 839 840 822
f 822 840 841 823
f 823 841 842 824
f 824 842 843 825
f 825 843 844 826
f 826 844 845 827
f 827 845 828 810
f 828 846 847 829
f 829 847 848 830
f 830 848 849 831
f 831 849 850 832
f 832 850 851 833
f 833 851 852 834
f 834 852 853 835
f 835 853 854 836
f 836 854 855 837
f 837 855 856 838
f 838 856 857 839
f 839 857 858 840
f 840 858 859 841
f 841 859 860 842
f 842 860 861 843
f 843 861 862 844
f 844 862 863 845
f 845 863 846 828
f 846 864 865 847
f 847 865 866 848
f 848 866 867 849
f 849 867 868 850
f 850 868 869 851
f 851 869 870 852
f 852 870 871 853
f 853 871 872 854
f 854 872 873 855
f 855 873 874 856
f 856 874 875 857
f 857 875 876 858
f 858 876 877 859
f 859 877 878 860
f 860 878 879 861
f 861 879 880 862
f 862 880 881 863
f 863 881 864 846
f 864 882 883 865
f 865 883 884 866
f 866 884 885 867
f 867 885 886 868
f 868 886 887 869
f 869 887 888 870
f 870 888 889 871
f 871 889 890 872
f 872 890 891 873
f 873 891 892 874
f 874 892 893 875
f 875 893 894 876
f 876 894 895 877
f 877 895 896 878
f 878 896 897 879
f 879 897 898 880
f 880 898 899 881
f 881 899 882 864
f 882 900 901 883
f 883 901 902 884
f 884 902 903 885
f 885 903 904 886
f 886 904 905 887
f 887 905 906 888
f 888 906 907 889
f 889 907 908 890
f 890 908 909 891
f 891 909 910 892
f 892 910 911 893
f 893 911 912 894
f 894 912 913 895
f 895 913 914 896
f 896 914 915 897
f 897 915 916 898
f 898 916 917 899
f 899 917 900 882
f 900 918 919 901
f 901 919 920 902
f 902 920 921 903
f 903 921 922 904
f 904 922 923 905
f 905 923 924 906
f 906 924 925 907
f 907 925 926 908
f 908 926 927 909
f 909 927 928 910
f 910 928 929 911
f 911 929 930 912
f 912 930 931 913
f 913 931 932 914
f 914 932 933 915
f 915 933 934 916
f 916 934 935 917
f 917 935 918 900
f 918 936 937 919
f 919 937 938 920
f 920 938 939 921
f 921 939 940 922
f 922 940 941 923
f 923 941 942 924
f 924 942 943 925
f 925 943 944 926
f 926 944 945 927
f 927 945 946 928
f 928 946 947 929
f 929 947 948 930
f 930 948 949 931
f 931 949 950 932
f 932 950 951 933
f 933 951 952 934
f 934 952 953 935
f 935 953 936 918
f 954 937 936
f 954 938 937
f 954 939 938
f 954 940 939
f 954 941 940
f 954 942 941
f 954 943 942
f 954 944 943
f 954 945 944
f 954 946 945
f 954 947 946
f 954 948 947
f 954 949 948
f 954 950 949
f 954 951 950
f 954 952 951
f 954 953 952
f 954 936 953
o FlameOuter
usemtl FlameOrange
s off
f 955 956 974 973
f 991 956 955
f 992 973 974
f 956 957 975 974
f 991 957 956
f 992 974 975
f 957 958 976 975
f 991 958 957
f 992 975 976
f 958 959 977 976
f 991 959 958
f 992 976 977
f 959 960 978 977
f 991 960 959
f 992 977 978
f 960 961 979 978
f 991 961 960
f 992 978 979
f 961 962 980 979
f 991 962 961
f 992 979 980
f 962 963 981 980
f 991 963 962
f 992 980 981
f 963 964 982 981
f 991 964 963
f 992 981 982
f 964 965 983 982
f 991 965 964
f 992 982 983
f 965 966 984 983
f 991 966 965
f 992 983 984
f 966 967 985 984
f 991 967 966
f 992 984 985
f 967 968 986 985
f 991 968 967
f 992 985 986
f 968 969 987 986
f 991 969 968
f 992 986 987
f 969 970 988 987
f 991 970 969
f 992 987 988
f 970 971 989 988
f 991 971 970
f 992 988 989
f 971 972 990 989
f 991 972 971
f 992 989 990
f 972 955 973 990
f 991 955 972
f 992 990 973
o FlameInner
usemtl HotMagma
s off
f 993 994 1010 1009
f 1025 994 993
f 1026 1009 1010
f 994 995 1011 1010
f 1025 995 994
f 1026 1010 1011
f 995 996 1012 1011
f 1025 996 995
f 1026 1011 1012
f 996 997 1013 1012
f 1025 997 996
f 1026 1012 1013
f 997 998 1014 1013
f 1025 998 997
f 1026 1013 1014
f 998 999 1015 1014
f 1025 999 998
f 1026 1014 1015
f 999 1000 1016 1015
f 1025 1000 999
f 1026 1015 1016
f 1000 1001 1017 1016
f 1025 1001 1000
f 1026 1016 1017
f 1001 1002 1018 1017
f 1025 1002 1001
f 1026 1017 1018
f 1002 1003 1019 1018
f 1025 1003 1002
f 1026 1018 1019
f 1003 1004 1020 1019
f 1025 1004 1003
f 1026 1019 1020
f 1004 1005 1021 1020
f 1025 1005 1004
f 1026 1020 1021
f 1005 1006 1022 1021
f 1025 1006 1005
f 1026 1021 1022
f 1006 1007 1023 1022
f 1025 1007 1006
f 1026 1022 1023
f 1007 1008 1024 1023
f 1025 1008 1007
f 1026 1023 1024
f 1008 993 1009 1024
f 1025 993 1008
f 1026 1024 1009
o FlameWisp_1
usemtl FlameOrange
s off
f 1027 1028 1040 1039
f 1051 1028 1027
f 1028 1029 1041 1040
f 1051 1029 1028
f 1029 1030 1042 1041
f 1051 1030 1029
f 1030 1031 1043 1042
f 1051 1031 1030
f 1031 1032 1044 1043
f 1051 1032 1031
f 1032 1033 1045 1044
f 1051 1033 1032
f 1033 1034 1046 1045
f 1051 1034 1033
f 1034 1035 1047 1046
f 1051 1035 1034
f 1035 1036 1048 1047
f 1051 1036 1035
f 1036 1037 1049 1048
f 1051 1037 1036
f 1037 1038 1050 1049
f 1051 1038 1037
f 1038 1027 1039 1050
f 1051 1027 1038
o FlameWisp_2
usemtl FlameOrange
s off
f 1053 1054 1066 1065
f 1077 1054 1053
f 1054 1055 1067 1066
f 1077 1055 1054
f 1055 1056 1068 1067
f 1077 1056 1055
f 1056 1057 1069 1068
f 1077 1057 1056
f 1057 1058 1070 1069
f 1077 1058 1057
f 1058 1059 1071 1070
f 1077 1059 1058
f 1059 1060 1072 1071
f 1077 1060 1059
f 1060 1061 1073 1072
f 1077 1061 1060
f 1061 1062 1074 1073
f 1077 1062 1061
f 1062 1063 1075 1074
f 1077 1063 1062
f 1063 1064 1076 1075
f 1077 1064 1063
f 1064 1053 1065 1076
f 1077 1053 1064
o FlameWisp_3
usemtl FlameOrange
s off
f 1079 1080 1092 1091
f 1103 1080 1079
f 1080 1081 1093 1092
f 1103 1081 1080
f 1081 1082 1094 1093
f 1103 1082 1081
f 1082 1083 1095 1094
f 1103 1083 1082
f 1083 1084 1096 1095
f 1103 1084 1083
f 1084 1085 1097 1096
f 1103 1085 1084
f 1085 1086 1098 1097
f 1103 1086 1085
f 1086 1087 1099 1098
f 1103 1087 1086
f 1087 1088 1100 1099
f 1103 1088 1087
f 1088 1089 1101 1100
f 1103 1089 1088
f 1089 1090 1102 1101
f 1103 1090 1089
f 1090 1079 1091 1102
f 1103 1079 1090
